<?xml version="1.0" encoding="UTF-8"?>
<svg data-bbox="3.52 2.13 107.475 43.34" viewBox="0 0 114 47" xmlns="http://www.w3.org/2000/svg" data-type="color">
    <g>
        <path fill="#636466" d="m97.77 26.45-2.18-4.92c-1.51 1.04-2.08 1.7-2.08 1.7l2.37 4.64c0-.09.95-.85 1.89-1.42" data-color="1"/>
        <path fill="#636466" d="m91.52 19.26-1.61-3.22c.76-.85 2.46-2.18 2.46-2.18l1.51 3.41c-.09 0-1.32.85-2.37 1.99Z" data-color="1"/>
        <path fill="#636466" d="m87.36 11.12-4.64-8.99h4.54L90 8.56v.09c.09.09-1.32 1.04-2.65 2.46Z" data-color="1"/>
        <path fill="#636466" d="m100.89 37.43-3.22-6.25s.66-.66 1.61-1.23l2.56 5.87c-.09 0-.57.76-.95 1.61" data-color="1"/>
        <path fill="#636466" d="m102.12 39.98 2.84 5.49h.95l-2.93-6.91s-.47.47-.85 1.42Z" data-color="1"/>
        <path fill="#636466" d="M108.46 34.97c-.09.09 0 0 0 0-.76.57-1.8 1.04-3.22 1.42l-.19.09s-.47.19-1.7 1.7h.09c3.22-.19 5.87-.85 6.91-1.7.09-.09.09 0 .09-.09-.28-.85-.85-1.42-1.99-1.42Z" data-color="1"/>
        <path fill="#636466" d="M110.36 19.92c-1.23 1.61-5.77 2.74-11.17 2.93h-2.65l-.66-1.61.95-.57h1.7c4.54-.19 7.48-1.32 8.9-2.65 0-.09 2.18.38 2.93 1.89Z" data-color="1"/>
        <path fill="#636466" d="M90.86 19.92c-1.14-.28-2.27-.57-3.03-.95l-.19-.09s-.66 1.04-.76 2.08l.19.09c.66.38 1.23.57 2.18.85.47-.66 1.14-1.51 1.61-1.99Z" data-color="1"/>
        <path fill="#636466" d="m100.7 37.9-.66-1.23h-.19c-2.18-.19-4.07-.57-5.2-1.14l-.09-.09c-.38.95-.19 1.32-.19 1.42h.09c1.32.66 3.6 1.14 6.25 1.04Z" data-color="1"/>
        <path fill="#636466" d="m99.57 29.76.57 1.32h.85c4.73 0 8.42-.95 9.46-2.27-.85-1.32-2.37-1.51-2.65-1.51-1.23 1.04-3.88 1.89-7.48 1.89.09.09-.19.19-.76.57Z" data-color="1"/>
        <path fill="#636466" d="M94.93 28.72c-1.89-.38-3.12-.85-4.16-1.51l-.09-.09c-.38.95-.38 1.51-.38 1.89l.09.09c.85.47 1.7.95 3.22 1.32.76-1.14.95-1.23 1.32-1.7" data-color="1"/>
        <path fill="#636466" d="M90.01 28.25c.38-3.12 3.88-6.81 8.8-9.08 5.2-2.37 10.13-2.18 11.64.19l.09.19c.38-1.04.47-2.18.28-3.03-.95-3.5-6.72-4.07-12.87-1.23s-10.31 7.95-9.37 11.45c.19.85.76 1.51 1.42 1.99v-.47Z" data-color="1"/>
        <path fill="#636466" d="m110.64 28.44.09.09c.28-.95.38-1.8.09-2.56-.85-2.84-5.68-3.12-10.69-.66-5.02 2.46-8.33 6.81-7.48 9.75.19.66.66 1.23 1.23 1.61v-.28c.28-2.56 3.03-5.87 7.1-7.85 4.16-2.08 8.23-2.08 9.65-.09Z" data-color="1"/>
        <path fill="#636466" d="M110.64 35.91c.19-.57.28-1.23.19-1.89-.47-2.27-3.03-2.65-5.87-.76-2.84 1.8-4.73 5.11-4.26 7.38.09.57.28.95.66 1.23v-.19c.19-1.99 1.8-4.45 3.97-5.96 2.37-1.51 4.64-1.42 5.3.19Z" data-color="1"/>
        <path fill="#636466" d="M105.43 6.48s-.09-.19-.19-.47c-.09-.19-.19-.28-.19-.28-.28-.47-1.51-.47-2.65-.57-.57 0-1.7-.38-2.18-.38-.66 0-.95 0-1.32.09s-1.51.57-1.89.76l-.28.09c-8.14 3.03-13.15 9.18-11.92 12.96.28.85.95 1.61 1.89 2.18h.09c.47-3.41 5.02-8.04 11.45-10.5l.19-.09c.66-.19.57 0 1.23 0 .85 0 .85-.09 2.18-.57l2.84-1.04s.57-.19.85-.66c.19-.38 0-.95-.09-1.51Zm-5.58-.09c-.76.28-1.14-.28-1.14-.28v-.09c.57-.47 1.32-.47 1.51-.57.09.57-.09.85-.38.95Z" data-color="1"/>
        <path fill="#636466" d="M14.78 13.11h5.11L31.06 36.2h-4.73l-2.37-5.3H10.71l-2.46 5.3H3.52zm7.38 13.91-4.83-10.31-4.83 10.31h9.65Z" data-color="1"/>
        <path fill="#636466" d="m37.11 18.69-.09 17.51h-3.97V13.11h6.06l7.19 17.13 7.29-17.13h5.87V36.2h-3.97V18.69h-.09L48.11 36.2h-3.6l-7.38-17.51Z" data-color="1"/>
        <path fill="#636466" d="M72.79 13.11h5.11L89.07 36.2h-4.73l-2.37-5.3H68.72l-2.46 5.3h-4.73zm7.38 13.91-4.83-10.31-4.83 10.31h9.65Z" data-color="1"/>
    </g>
</svg>
