<?xml version="1.0" encoding="UTF-8"?>
<svg data-bbox="4.83 1.16 121.272 29.09" viewBox="0 0 130.9 31.5" xmlns="http://www.w3.org/2000/svg" data-type="color">
    <g>
        <path fill="#636466" d="M109.21 1.16c-6.3 0-11.48 5.09-11.48 11.48s5.09 11.48 11.48 11.48 11.48-5.09 11.48-11.48-5.19-11.48-11.48-11.48m8.89 5.09c-.56.37-1.2.74-1.85 1.11-.37-.74-.83-1.48-1.39-2.13.46-.28.93-.65 1.3-.93.83.46 1.48 1.2 1.94 1.94m-4.81-3.78c.93.37 1.76.83 2.59 1.48-.37.37-.83.65-1.3.93-.56-.65-1.2-1.2-1.85-1.76.19-.28.37-.46.56-.65m.92 2.59c-.65.37-1.3.56-1.94.83-.28-.65-.56-1.3-.93-1.85.37-.19.74-.37 1.02-.65.65.46 1.3 1.02 1.85 1.67m-1.39-2.78c-.19.19-.37.37-.46.56-.65-.37-1.2-.74-1.94-1.02.83 0 1.67.19 2.41.46m-.84.83c-.28.19-.56.37-.83.46-.37-.56-.74-1.02-1.11-1.57.65.28 1.3.65 1.94 1.11m-2.59-1.01c.46.46.83 1.02 1.2 1.67-.37.09-.74.19-1.2.19V2.1Zm0 2.31c.46 0 1.02-.09 1.48-.28.37.56.65 1.2.93 1.85-.74.19-1.57.28-2.41.37zm-.47-2.31v1.85c-.37 0-.74-.09-1.2-.19.46-.56.83-1.11 1.2-1.67m-1.57 1.49c-.28-.09-.65-.28-.83-.46.65-.37 1.3-.74 1.94-1.02-.46.46-.83.93-1.11 1.48m.65-1.85c-.65.28-1.3.65-1.94 1.02-.19-.19-.37-.37-.46-.56.74-.19 1.57-.37 2.41-.46m7.86 19.63c-1.48-.83-1.57-2.04-1.48-2.41.09-.46.37-.28.56-.28 1.02 0 2.04-.28 3.33-1.67 1.48-1.48 1.94-4.82-.37-6.95-2.41-2.32-5-1.94-6.67.19-.37.46-1.2.74-1.85.74-1.11 0-.37.83-.37 1.02s-.19.28-.28.28c-.37-.09-.19.46-.19.56s-.19.28-.19.28c-.46 0-.37.37-.28.56 0 .09 0 .28-.19.37s-.28.46-.28.74c0 .46.46.83 1.2 1.39s.83 1.11.83 1.48.09 1.02.19 1.39c.19.46.19 1.39-.83 1.39-1.3.09-3.52 1.02-3.7 1.11-.74.28-1.67.37-2.41.19-.37-.28-.74-.56-1.11-.93-.19-.46.09-1.02.37-1.39.46.46 1.02.37 1.39.37s2.04-.28 2.32-.37.37-.09.46 0c.65.28 1.57.28 1.94-.93.37-1.3-.46-.93-.65-.83-.09.09-.28 0-.19-.09.19-.28-.09-.28-.19-.28-.37 0-.83.37-.93.46-.19.09-.28.09-.37.09-.46-.28-1.85.09-2.32-.65 0-.19-.37-3.24-.56-3.8 0-.09-.09-.28.09-.46.37-.56 1.3 0 1.85 0 .65 0 .74-.28.93-.46s.28-.09.37-.19c.09-.09 0-.19 0-.28s.09 0 .19-.09 0-.28 0-.37c.19-.28.56-.09.37-.65-.09-.37.09-.74.28-.93.28-.37 1.48-2.04-.56-3.8-1.94-1.67-3.98-1.48-5.28-.09s-.65 3.43-.56 3.98-.28 1.02-.74 1.2c-.37.19-1.2.74-1.76 1.2.09-4.45 2.78-8.34 6.85-9.91.19.19.37.46.56.65-.46.37-1.48 1.2-1.48 1.2s.09 0 .28.09c.09 0 .28.09.28.09s.83-.74 1.3-1.02c.28.28.65.46 1.02.65-.19.37-.74 1.3-.74 1.3s.09.09.19.09c.09.09.19.09.19.09s.56-1.02.74-1.39c.46.19.93.28 1.39.28v1.85c-.28 0-.93 0-1.2-.09h-.19l.09.19c.09.09.09.19.19.28h1.11v3.43h.46v-.83c.74 0 1.3-.09 1.94-.19l.65-.56h-.37c-.74.09-1.39.19-1.94.19h-.28V6.7c.83 0 1.76-.09 2.59-.37.19.56.65 1.94.65 1.94l.46-.19s-.46-1.39-.65-1.94c.74-.19 1.39-.56 2.04-.83.56.65 1.02 1.39 1.39 2.13-.37.19-.93.37-.93.37.46.09.83.19.83.19s.19-.09.28-.09c0 .09.09.28.09.28l.65.28-.09-.19s-.19-.46-.28-.56c.65-.28 1.3-.65 1.94-1.11 1.2 1.76 1.76 3.89 1.76 6.02.19 3.52-1.57 6.67-4.17 8.71" data-color="1"/>
        <path fill="#636466" d="m96.71 4.22-.19.19c-.65.56-2.22 2.13-1.94 3.89v.09l.09.37.19-.19c.93-.83 1.67-2.32 1.94-3.98l.09-.46-.19.09Z" data-color="1"/>
        <path fill="#636466" d="m93.56 7.18-.09.19c-.09.28-.28.93-.37 1.67-.19 1.11-.09 2.78.83 3.98l.09.19.09.19.19-.74c.19-1.3-.09-3.98-.56-5.19l-.19-.37v.09Z" data-color="1"/>
        <path fill="#636466" d="M92.45 11.81V12c-.09 1.11 0 3.98 2.32 5.56l.28.19v-.37c0-1.11-1.3-4.35-2.22-5.46l-.28-.37-.09.28Z" data-color="1"/>
        <path fill="#636466" d="M92.82 16.9v.19c.37 1.67 1.85 4.26 4.26 5.09l.37.09-.09-.37c-.46-1.2-2.78-4.08-4.26-5l-.28-.19z" data-color="1"/>
        <path fill="#636466" d="m97.73 6.72-.28.09c-1.76 1.11-2.59 2.41-2.59 4.08v.37l.28-.19c.93-.83 2.22-2.87 2.5-3.98l.09-.46z" data-color="1"/>
        <path fill="#636466" d="m96.62 10.24-.09.19c-.46.46-1.94 2.04-1.85 3.98 0 .28.09.65.19.93l.09.28.19-.28c.74-1.02 1.67-3.61 1.57-4.82v-.37l-.09.09Z" data-color="1"/>
        <path fill="#636466" d="m96.71 13.66-.09.19q-1.11 1.665-1.11 3.33c0 .74.28 1.48.74 2.22l.19.28.09-.28c.28-.65.56-2.59.56-4.17 0-.56-.09-1.02-.19-1.3l-.09-.37-.09.09Z" data-color="1"/>
        <path fill="#636466" d="m97.54 17.27-.09.19c-.19.74-.37 1.39-.28 2.13 0 1.48.74 2.69 2.04 3.52l.19.09.09-.28v-.28c0-1.2-.93-4.35-1.67-5.28l-.19-.28z" data-color="1"/>
        <path fill="#636466" d="m95.04 22.09.09.19c.93 1.57 2.59 3.7 5.65 3.15h.28l-.19-.19c-.56-.83-4.26-2.96-5.56-3.15l-.37-.09.09.09Z" data-color="1"/>
        <path fill="#636466" d="m99.58 26.17-.46.09.46.19c1.94.83 4.35 1.02 5.83.56.56-.19.83-.46 1.2-.83 2.5.28 4.82 2.32 6.21 3.98l.09.09h.09c.19-.09.37-.28.46-.37l.09-.09-.09-.09c-1.39-1.85-3.61-2.96-3.7-3.06-2.04-.93-5.56-1.67-10.19-.46" data-color="1"/>
        <path fill="#636466" d="M99.67 20.98v.19c.28 1.85 1.02 4.26 4.17 3.98h.19l-.09-.19c-.19-.83-3.06-3.24-4.08-3.89l-.28-.19.09.09Z" data-color="1"/>
        <path fill="#636466" d="m121.53 4.03.09.46c.28 1.67 1.02 3.15 1.94 3.98l.19.19.09-.37V8.2c.28-1.76-1.3-3.33-1.94-3.89l-.19-.19-.19-.09Z" data-color="1"/>
        <path fill="#636466" d="m124.77 6.99-.19.37c-.46 1.2-.65 3.89-.56 5.19l.19.74.09-.09.09-.19c1.02-1.2 1.02-2.78.83-3.98-.09-.83-.28-1.39-.37-1.67l-.09-.19v-.19Z" data-color="1"/>
        <path fill="#636466" d="m125.98 11.62-.28.37c-.93 1.2-2.22 4.35-2.22 5.46v.37l.28-.19c2.32-1.48 2.41-4.35 2.32-5.56v-.19l-.09-.28Z" data-color="1"/>
        <path fill="#636466" d="m125.6 16.72-.37.19c-1.48.93-3.8 3.8-4.26 5l-.09.37.37-.09c2.41-.74 3.98-3.43 4.26-5.09v-.19z" data-color="1"/>
        <path fill="#636466" d="m120.7 6.53.09.46c.37 1.2 1.48 3.24 2.5 4.08l.28.19v-.37c.09-1.67-.74-2.96-2.5-4.08l-.19-.09-.19-.19Z" data-color="1"/>
        <path fill="#636466" d="M121.71 10.14v.37c-.09 1.2.93 3.89 1.57 4.82l.19.28.09-.28c.09-.37.19-.65.19-.93.09-1.94-1.39-3.52-1.85-3.98l-.09-.09-.09-.19Z" data-color="1"/>
        <path fill="#636466" d="m121.62 13.48-.09.37c-.09.28-.19.74-.19 1.3 0 1.57.19 3.52.56 4.17l.09.28.19-.28c.46-.65.74-1.39.74-2.22 0-1.02-.37-2.22-1.11-3.33l-.09-.19-.09-.09Z" data-color="1"/>
        <path fill="#636466" d="m120.79 17.09-.19.28c-.74.93-1.67 4.08-1.67 5.28v.28l.09.28.19-.09c1.3-.83 1.94-2.04 2.04-3.52 0-.65-.09-1.39-.28-2.13l-.09-.19z" data-color="1"/>
        <path fill="#636466" d="m123.47 21.91-.37.09c-1.3.19-5 2.32-5.56 3.15l-.19.19h.28c3.06.56 4.72-1.57 5.65-3.15l.09-.19.09-.09Z" data-color="1"/>
        <path fill="#636466" d="M108.75 26.63c-.09 0-2.32 1.2-3.7 3.06l-.09.09.09.09c.09.09.37.28.46.37h.09l.09-.09c1.39-1.67 3.7-3.8 6.21-3.98.37.37.74.65 1.2.83 1.39.46 3.89.28 5.83-.56l.46-.19-.46-.09c-4.72-1.2-8.24-.46-10.19.46" data-color="1"/>
        <path fill="#636466" d="m118.75 20.79-.28.19c-1.02.65-3.8 3.06-4.08 3.89l-.09.19h.19c3.06.28 3.8-2.13 4.17-3.98v-.19l.09-.09Z" data-color="1"/>
        <path fill="#636466" d="M40.58 2.27h3.89v3.52h-3.89zm.37 7.6h3.24V27.1h-3.24z" data-color="1"/>
        <path fill="#636466" d="M16.41 9.87h3.24V27.1H16.5v-2.5h-.09c-1.3 2.13-3.52 3.06-5.93 3.06-3.61 0-5.65-2.78-5.65-6.21V9.87h3.24v10.19c0 2.96.65 5.19 3.8 5.19 1.3 0 3.15-.65 3.8-2.5.65-1.57.65-3.61.65-4.08v-8.8z" data-color="1"/>
        <path fill="#636466" d="M26.14 12.37c1.2-2.13 3.52-3.06 5.28-3.06 1.2 0 6.48.28 6.48 5.83v11.85h-3.24V16.15c0-2.87-1.2-4.35-3.98-4.35 0 0-1.76-.09-3.15 1.3-.46.46-1.39 1.2-1.39 4.63v9.35H22.9V9.87h3.24z" data-color="1"/>
        <path fill="#636466" d="M57.81 15.33c-.19-2.13-1.2-3.61-3.52-3.61-3.06 0-4.26 2.69-4.26 6.67s1.2 6.67 4.26 6.67c2.13 0 3.43-1.39 3.61-3.89h3.24c-.28 3.89-3.15 6.21-6.95 6.21-5.46 0-7.69-3.89-7.69-8.89s2.5-9.17 7.96-9.17c3.61 0 6.3 2.32 6.48 6.02h-3.15Z" data-color="1"/>
        <path fill="#636466" d="M65.96 19.03c-.28 2.96 1.02 6.11 4.26 6.11 2.5 0 3.8-1.02 4.17-3.52h3.43c-.56 3.89-3.52 5.83-7.59 5.83-5.46 0-7.69-3.89-7.69-8.89s2.5-9.17 7.96-9.17c5.09.09 7.5 3.33 7.5 8.06v1.57H65.96Zm8.71-2.22c.09-2.87-1.2-5.09-4.35-5.09-2.69 0-4.26 2.32-4.26 5.09z" data-color="1"/>
        <path fill="#636466" d="M81.7 26.91V12.09h-2.96V9.87h2.96v-3.7c.09-3.7 2.96-4.72 5.37-4.72.74 0 1.57.19 2.32.37v2.69c-.56 0-1.11-.09-1.67-.09-1.85 0-2.87.46-2.78 2.32v3.15h3.98v2.22h-3.98v14.82H81.7Z" data-color="1"/>
    </g>
</svg>
