<?xml version="1.0" encoding="UTF-8"?>
<svg data-bbox="20.61 9.4 851.68 295.49" viewBox="0 0 892.91 314.29" xmlns="http://www.w3.org/2000/svg" data-type="color">
    <g>
        <path fill="#636466" d="M698.32 27.97h22.44V19.7h-78.2v8.27h22.56v157.3h-22.56v8.19h78.2v-8.19h-22.44z" data-color="1"/>
        <path fill="#636466" d="M840.63 193.47v-8.16h-23.97V26.22c36.63-1.83 42.89 6.01 47.59 39.26h8.04l-2.85-45.78H730.3l-2.83 45.78h8.26c4.73-33.25 10.91-41.09 47.61-39.26V185.3h-23.98v8.16h81.27" data-color="1"/>
        <path fill="#636466" d="M627.67 27.91v-8.2h-64.09l-37.67 118.84-36.37-118.84h-63.85v8.2h22.46v157.41l-24.26-.03c-22.54.55-22.88-18.66-22.78-22.63.31-42.36-9.15-57.78-49.74-64.05v-.57c24.21-2.56 55.17-9.45 55.17-38.8 0-36.14-33.73-39.53-62.19-39.53h-83.78v8.2H283v157.38h-22.43v8.18h78.16v-8.18H316.3v-82.97c14.41-.57 30.65 3.11 37.98 9.41 6.77 5.74 10.42 23.58 10.42 45.11 0 26.57 13.71 36.63 40.03 36.63h75.33v-8.15h-21.94V30.6h.54l51.73 162.86h8.79L571.24 30.6h.79v154.71h-22.38v8.15h78.05v-8.15h-22.39V27.91h22.39ZM316.29 94.2V27.91h22.63c23.17 0 31.73 5.82 31.73 35.04 0 23.3-9.61 31.25-33.04 31.25h-21.33" data-color="1"/>
        <path fill="#e42a20" d="M122.25 9.4H96.31v21.08h-43.2v43.95h-32.5v64.54h32.5v43.96h43.2v21.02h22.87c53.44 0 100.59-43.14 100.59-97.03S175.79 9.4 122.25 9.4" data-color="2"/>
        <path fill="#636466" d="M282.99 246.04c0-1.45-.78-2.12-2.12-2.12h-4.15v-8.3h9.74c4.34 0 6.18 1.84 6.18 6.18v37.72c0 10.22 6.46 16.31 16.3 16.31s16.31-6.09 16.31-16.41v-37.63c0-4.34 1.93-6.18 6.26-6.18h9.65v8.3h-4.15c-1.35 0-2.11.67-2.11 2.12v33.87c0 14.85-10.33 24.99-25.86 24.99s-26.05-10.14-26.05-24.99v-33.87Z" data-color="1"/>
        <path fill="#636466" d="M347.69 295.44h4.14c1.36 0 2.13-.78 2.13-2.12v-57.7h8.78l30.3 43.13c2.51 3.66 5.7 9.26 5.7 9.26h.19s-.67-5.4-.67-9.26V241.8c0-4.34 1.83-6.18 6.27-6.18h9.65v8.3h-4.15c-1.35 0-2.12.67-2.12 2.12v57.7h-8.69l-30.39-43.12c-2.51-3.68-5.6-9.27-5.6-9.27h-.19s.58 5.5.58 9.27v36.94c0 4.34-1.85 6.18-6.18 6.18h-9.74v-8.3Z" data-color="1"/>
        <path fill="#636466" d="M424.64 295.44h6.66v-51.52h-6.66v-8.3h22.48v8.3h-6.66v51.52h6.66v8.3h-22.48z" data-color="1"/>
        <path fill="#636466" d="M457.63 246.04c-.57-1.74-1.55-2.12-3.17-2.12h-1.35v-8.3h5.4c4.82 0 6.47 1.07 8.01 5.6l14.95 41.97c1.26 3.66 2.61 9.35 2.61 9.35h.19s1.25-5.69 2.61-9.35l14.95-41.97c1.63-4.53 3.18-5.6 8-5.6h5.4v8.3h-1.34c-1.75 0-2.61.38-3.19 2.12l-21.42 57.7h-10.23z" data-color="1"/>
        <path fill="#636466" d="M527.11 243.92h-6.26v-8.29h40.05c4.34 0 6.16 1.83 6.16 6.17v8.58h-8.79v-4.34c0-1.45-.77-2.12-2.12-2.12h-19.38v21.33h23.82v8.29h-23.82v19.78c0 1.34.77 2.12 2.12 2.12h19.87c1.36 0 2.14-.78 2.14-2.12v-4.34h8.87v8.58c0 4.35-1.83 6.18-6.17 6.18h-30.3c-4.34 0-6.18-1.83-6.18-6.18v-53.64Z" data-color="1"/>
        <path fill="#636466" d="M605.5 268.33c7.33 0 11.67-4.73 11.67-12.35s-4.34-12.06-11.48-12.06h-12.73v24.42h12.55Zm-22.2-24.42h-6.27v-8.29h29.72c11.97 0 20.36 7.52 20.36 19.97 0 11.37-7.43 16.98-12.26 18.03v.19s1.75.87 2.89 3.09l8.21 16.3c.97 2.03 2.51 2.23 4.82 2.23h1.26v8.29h-4.74c-5.3 0-7.23-.67-9.44-5.11l-9.26-18.32c-1.74-3.19-3-3.67-6.76-3.67h-8.87v27.11h-9.65v-59.82Z" data-color="1"/>
        <path fill="#636466" d="M644.37 287.91s6.95 8.2 17.07 8.2c6.38 0 11.69-3.87 11.69-10.14 0-14.28-32.91-12.06-32.91-33.28 0-10.23 8.97-18.24 21.81-18.24 7.24 0 19.38 3.29 19.38 12.54v5.61h-8.87v-3.19c0-3.58-5.11-6.18-10.52-6.18-7.34 0-11.97 4.05-11.97 9.17 0 13.8 32.81 10.71 32.81 33.09 0 10.43-8.12 19.4-21.61 19.4-14.48 0-22.58-10.14-22.58-10.14l5.69-6.84Z" data-color="1"/>
        <path fill="#636466" d="M692.99 295.44h6.66v-51.52h-6.66v-8.3h22.49v8.3h-6.67v51.52h6.67v8.3h-22.49z" data-color="1"/>
        <path fill="#636466" d="M746.17 243.92h-13.71c-1.35 0-2.12.67-2.12 2.12v4.34h-8.58v-8.97c0-4.34 1.44-5.78 5.78-5.78h46.9c4.33 0 5.78 1.45 5.78 5.78v8.97h-8.58v-4.34c0-1.45-.77-2.12-2.13-2.12H755.8v59.82h-9.64v-59.82Z" data-color="1"/>
        <path fill="#636466" d="m807.74 274.02-17.27-27.69c-1.25-2.03-2.13-2.41-4.16-2.41h-1.93v-8.3h4.43c4.64 0 6.46.68 9.18 5.22l10.32 17.18c2.23 3.75 4.15 7.62 4.15 7.62h.19s1.83-3.87 4.14-7.62l10.24-17.18c2.68-4.54 4.62-5.22 9.15-5.22h4.44v8.3h-1.85c-2.01 0-2.98.38-4.23 2.41l-17.18 27.69v29.72h-9.63v-29.72Z" data-color="1"/>
    </g>
</svg>
