<?xml version="1.0" encoding="UTF-8"?>
<svg data-bbox="2.67 2.07 87.5 67.64" viewBox="0 0 92.84 71.77" xmlns="http://www.w3.org/2000/svg" data-type="color">
    <g>
        <path fill="#77787b" d="m50.69 21.77 11.15.03c-1.44 5.44-5.76 9.77-11.15 11.32z" data-color="1"/>
        <path fill="#77787b" d="M41.77 13.51H30.68c1.42-5.46 5.73-9.8 11.11-11.37z" data-color="1"/>
        <path fill="#77787b" d="M41.78 21.78v11.09c-5.45-1.42-9.8-5.72-11.37-11.1h11.37Z" data-color="1"/>
        <path fill="#77787b" d="M50.68 13.5V2.41c5.44 1.41 9.79 5.71 11.37 11.09z" data-color="1"/>
        <path fill="#77787b" d="M43.3 3.31c-.29.1-.15.49-.25.74-.15 2.55 2.75 1.91 3.93 3.44.59.88.25 2.06.29 3.09.51 0 1.7-.77 1.96-2.06 0-.88-.39-1.67-1.03-2.26-1.67-1.03-2.99-2.65-4.91-2.94m.45 7.3c-.98 2.55 2.01 3.43 3.34 4.91.34.83.29 2.55.29 2.55.79-.05 1.42-.79 1.62-1.52.74-2.5-2.06-3.53-3.48-4.86-.49-.59-.2-1.62-.34-2.31-.64.2-1.13.69-1.42 1.23m1.42 6.03c-.79.2-1.42 1.03-1.62 1.77-.49 2.06 1.77 2.99 3.04 4.02 1.37.69.54 2.45.83 3.53.69-.15 1.23-.74 1.47-1.37.39-.88 0-2.48-.2-2.75L45.8 19.4c-.83-.64-.34-1.82-.54-2.7l-.1-.05Zm-.89 8.25c-.59.59-.83 1.37-.69 2.16.15 1.08 1.23 1.67 2.06 2.01 1.23.64 2.31 1.77 3.04 2.9.25-.25.29-.54.29-.88 0-1.96-2.83-3.37-3.32-3.86s-.41-2.86-.41-2.86c-.34 0-.69.29-.98.54m2.87-22.84v2.82c1.37.79 2.74 2.29 2.49 4.01-.16 1.82-2.37 2.43-2.37 2.43v1.06c.71.48 2.27 1.34 2.39 3.18.06 1.96-1.4 3.06-2.33 3.2v1.18c1.13.88 2.27 1.57 2.21 3.72-.11 2.51-2.15 2.88-2.15 2.88v1.16c1.03.79 2.15 1.95 2.05 3.42 0 .74-.34 1.32-.74 1.82h-.2a5.8 5.8 0 0 0-1.03-1.62l-.02 1.84h-2.15v-3.61c-.74-.23-2.45-.87-2.42-3.11.18-2.33 1.94-2.58 2.44-2.78V22.1c-1.13-.79-2.6-1.91-2.31-3.43.24-1.45.83-2.1 2.23-2.61l.02-1.41c-1.13-.69-2.21-1.77-2.16-3.24.05-1.18 1.03-2.16 2.11-2.55V6.9c-.98-.29-2.16-.64-2.5-1.72-.29-.69-.25-1.62.1-2.31.79-.05 1.5.18 2.18.52V2.07h2.15Z" data-color="1"/>
        <path fill="#77787b" d="M44.51 5.18c.3 0 .54-.24.54-.54s-.24-.54-.54-.54-.54.24-.54.54.24.54.54.54" data-color="1"/>
        <path fill="#77787b" d="m79.86 49.32 10.31 20.37-4.41.02s-5.79-11.43-8.59-16.88l-3.93 8.11H68.5l5.97-11.6z" data-color="1"/>
        <path fill="#77787b" d="m39.17 49.32 7.32 16.02 7.85-16.02h6.46v20.37h-4.25l.05-17.07-7.7 17.08h-4.91l-7.75-16.73V69.7l-3.98-.01V49.32z" data-color="1"/>
        <path fill="#77787b" d="m80.59 62.16 1.5 3.03H71.03l-2.26 4.51h-4.32l3.63-7.54z" data-color="1"/>
        <path fill="#77787b" d="M12.98 49.32 2.67 69.69l4.41.02s5.79-11.43 8.59-16.88l3.93 8.11h4.74l-5.97-11.6z" data-color="1"/>
        <path fill="#77787b" d="m12.24 62.16-1.49 3.03h11.06l2.26 4.51h4.31l-3.62-7.54z" data-color="1"/>
    </g>
</svg>
