<?xml version="1.0" encoding="UTF-8"?>
<svg data-bbox="2.06 1.54 154.88 31.82" viewBox="0 0 159 34.91" xmlns="http://www.w3.org/2000/svg" data-type="color">
    <g>
        <path fill="#636466" d="M2.06 19.04V5.7H6.6c1.34 0 3.58.18 5.3 1.84 1.56 1.5 1.86 3.42 1.86 4.86 0 1.76-.44 3.32-1.74 4.62-1.06 1.06-2.84 2.02-5.12 2.02zm3.46-2.94h.7c.84 0 2.02-.08 2.92-.96.44-.42 1.02-1.26 1.02-2.74 0-1.24-.38-2.3-1.04-2.92-.82-.76-1.9-.84-2.76-.84h-.84z" data-color="1"/>
        <path fill="#636466" d="M14.86 10.1h3.2v1.46c.32-.6.78-1 1.26-1.24.48-.26 1.06-.36 1.66-.36.08 0 .22.02.64.04v3.02c-.16-.08-.6-.32-1.38-.32-.42 0-1 .06-1.46.48-.68.62-.72 1.56-.72 2.04v3.82h-3.2z" data-color="1"/>
        <path fill="#636466" d="M33.39 16.35h-5.81l-1.08 2.69h-4.39l6.14-16.01h4.54l6.02 16.01h-4.44zm-1.11-3.17L30.48 8l-1.75 5.18z" data-color="1"/>
        <path fill="#636466" d="M51.24 19.04H47.4v-1.18c-1.08 1.39-2.5 1.54-3.24 1.54-1.54 0-2.76-.5-3.77-1.49-1.08-1.06-1.73-2.57-1.73-4.27 0-1.82.77-3.31 1.75-4.25 1.06-1.01 2.47-1.44 3.79-1.44 1.46 0 2.5.65 3.19 1.39v-7.8h3.84v17.5Zm-4.53-3.55c.5-.46.82-1.18.82-1.82 0-.6-.34-1.32-.72-1.73-.43-.46-1.03-.72-1.75-.72-.82 0-1.37.36-1.7.7-.43.43-.74 1.1-.74 1.82 0 .55.24 1.18.74 1.68s1.15.72 1.7.72c.62 0 1.25-.29 1.66-.65Z" data-color="1"/>
        <path fill="#636466" d="M52.44 8.31h3.84v1.75c.38-.72.94-1.2 1.51-1.49.58-.31 1.27-.43 1.99-.43.1 0 .26.02.77.05v3.62c-.19-.1-.72-.38-1.66-.38-.5 0-1.2.07-1.75.58-.82.74-.86 1.87-.86 2.45v4.58h-3.84z" data-color="1"/>
        <path fill="#636466" d="M63.34 1.69c1.2 0 2.16.96 2.16 2.16s-.96 2.16-2.16 2.16-2.16-.96-2.16-2.16.96-2.16 2.16-2.16m1.92 6.62v10.73h-3.84V8.31z" data-color="1"/>
        <path fill="#636466" d="M74.98 8.31h3.84v10.73h-3.84v-1.18c-.89 1.22-2.28 1.54-3.34 1.54-1.15 0-2.57-.34-3.86-1.7-1.03-1.1-1.54-2.33-1.54-3.94 0-2.02.79-3.43 1.66-4.3.91-.91 2.33-1.51 3.86-1.51 1.73 0 2.76.89 3.22 1.39zm-4.04 3.6c-.53.5-.77 1.2-.77 1.75 0 .62.26 1.3.74 1.75.41.38 1.08.72 1.73.72s1.25-.26 1.73-.74c.34-.34.72-.86.72-1.73 0-.5-.14-1.18-.74-1.75-.36-.34-.91-.7-1.73-.7-.48 0-1.13.17-1.68.7" data-color="1"/>
        <path fill="#636466" d="M80.14 8.31h3.84v1.34c1.06-1.39 2.47-1.58 3.41-1.58 1.1 0 2.28.26 3.17 1.15.91.91 1.01 1.82 1.01 3v6.82h-3.84v-5.42c0-.62.02-1.56-.48-2.09-.36-.38-.84-.46-1.22-.46-.6 0-1.1.22-1.42.5-.38.36-.62 1.06-.62 1.71v5.76h-3.84V8.31Z" data-color="1"/>
        <path fill="#72c7a7" d="M95.27 15.89c.97 0 1.72.75 1.72 1.72s-.75 1.72-1.72 1.72-1.72-.75-1.72-1.72.75-1.72 1.72-1.72" data-color="2"/>
        <path fill="#636466" d="M107.59 14.57c0 2.66-2.05 4.71-4.71 4.71s-4.71-2.05-4.71-4.71 2.05-4.71 4.71-4.71 4.71 2.05 4.71 4.71m-.92 0c0-2.18-1.63-3.87-3.78-3.87s-3.78 1.69-3.78 3.87 1.63 3.87 3.78 3.87 3.78-1.69 3.78-3.87" data-color="1"/>
        <path fill="#636466" d="M109.08 10.06h.88v1.17c.33-.77 1.01-1.36 1.98-1.36.24 0 .62.04.95.22l-.44.79c-.09-.07-.26-.18-.66-.18-1.8 0-1.83 2.4-1.83 3.52v4.82h-.88z" data-color="1"/>
        <path fill="#636466" d="M121.74 10.06v8.71c0 3.39-1.69 5.32-4.51 5.32-2.33 0-4.29-1.36-4.4-3.85h.92c.15 1.87 1.56 3.01 3.48 3.01 3.54 0 3.63-3.56 3.63-4.49v-1.28c-.9 1.25-2.27 1.78-3.54 1.78-2.2 0-4.42-1.61-4.42-4.73 0-2.6 1.72-4.69 4.53-4.69 1.47 0 2.66.66 3.43 1.76v-1.56h.88Zm-7.93 4.54c0 2.16 1.36 3.85 3.48 3.85 2.22 0 3.61-1.74 3.61-3.94s-1.36-3.81-3.56-3.81-3.52 1.83-3.52 3.89Z" data-color="1"/>
        <path fill="#72c7a7" d="M4.41 27.34v4.23H3.2v-4.23H2.06v-1.02h3.49v1.02z" data-color="2"/>
        <path fill="#72c7a7" d="M5.66 28.05h1.13v.55c.1-.2.26-.38.44-.49.19-.12.39-.15.61-.15.14 0 .24.02.37.05l-.06 1.06c-.15-.08-.31-.13-.51-.13-.24 0-.42.09-.57.24-.25.27-.28.64-.28.94v1.42H5.66v-3.51Z" data-color="2"/>
        <path fill="#72c7a7" d="M11.17 28.05h1.13v3.51h-1.13v-.42c-.31.47-.75.54-1.04.54-.5 0-.93-.13-1.31-.54-.37-.39-.51-.85-.51-1.31 0-.59.22-1.09.54-1.42s.73-.48 1.22-.48c.3 0 .78.07 1.1.51zm-1.44 1.11c-.12.12-.26.32-.26.64s.13.52.24.63c.16.17.4.28.67.28.23 0 .44-.09.59-.24.15-.14.28-.36.28-.66 0-.25-.09-.49-.26-.64a.9.9 0 0 0-.63-.24c-.24 0-.47.1-.62.25Z" data-color="2"/>
        <path fill="#72c7a7" d="M16.94 31.56h-1.13v-.42c-.17.25-.49.54-1.11.54-.52 0-.9-.17-1.2-.48-.36-.36-.55-.87-.55-1.41 0-.58.21-1.06.55-1.38.31-.29.74-.47 1.22-.47.39 0 .81.13 1.09.51v-2.62h1.13v5.74Zm-2.56-2.42a.94.94 0 0 0-.28.67c0 .26.11.49.28.64.17.17.39.24.59.24.21 0 .46-.09.64-.26.13-.13.26-.34.26-.63s-.12-.5-.25-.65a.82.82 0 0 0-.64-.26.82.82 0 0 0-.61.24Z" data-color="2"/>
        <path fill="#72c7a7" d="M18.42 25.89c.37 0 .66.29.66.66s-.29.66-.66.66-.66-.29-.66-.66.29-.66.66-.66m.56 2.16v3.51h-1.13v-3.51z" data-color="2"/>
        <path fill="#72c7a7" d="M21.03 28.96v2.6H19.9v-2.6h-.39v-.91h.39v-1.13h1.13v1.13h.7v.91z" data-color="2"/>
        <path fill="#72c7a7" d="M22.79 25.89c.37 0 .66.29.66.66s-.29.66-.66.66-.66-.29-.66-.66.29-.66.66-.66m.56 2.16v3.51h-1.13v-3.51z" data-color="2"/>
        <path fill="#72c7a7" d="M27.66 31.11c-.31.31-.85.57-1.53.57s-1.22-.25-1.53-.57c-.35-.35-.53-.86-.53-1.31s.17-.95.53-1.31c.31-.31.85-.57 1.53-.57s1.22.25 1.53.57c.35.35.53.86.53 1.31s-.17.95-.53 1.31m-2.17-1.97a.88.88 0 0 0-.26.66c0 .32.13.53.26.66.14.14.35.25.64.25.25 0 .46-.09.63-.25.17-.17.26-.38.26-.66s-.09-.49-.26-.66c-.16-.17-.38-.25-.64-.25s-.47.09-.64.25Z" data-color="2"/>
        <path fill="#72c7a7" d="M28.82 28.05h1.13v.42c.35-.44.76-.51 1.09-.51.31 0 .71.06 1.01.35.33.33.35.75.35 1.03v2.22h-1.13v-1.8c0-.23 0-.52-.19-.7a.6.6 0 0 0-.43-.16c-.24 0-.39.09-.47.19-.19.19-.22.44-.22.67v1.8h-1.13v-3.51Z" data-color="2"/>
        <path fill="#72c7a7" d="M35.89 28.05h1.13v3.51h-1.13v-.42c-.31.47-.75.54-1.04.54-.5 0-.93-.13-1.31-.54-.37-.39-.51-.85-.51-1.31 0-.59.22-1.09.54-1.42s.73-.48 1.22-.48c.3 0 .78.07 1.1.51zm-1.44 1.11c-.12.12-.26.32-.26.64s.13.52.24.63c.16.17.4.28.67.28.23 0 .44-.09.59-.24.15-.14.28-.36.28-.66 0-.25-.09-.49-.26-.64a.9.9 0 0 0-.63-.24c-.24 0-.47.1-.62.25Z" data-color="2"/>
        <path fill="#72c7a7" d="M39 25.82v5.74h-1.13v-5.74z" data-color="2"/>
        <path fill="#72c7a7" d="m40.18 30.35 1.03.06-1.19 2.2-.71-.03.87-2.22Z" data-color="2"/>
        <path fill="#72c7a7" d="M47.61 31.39c-.46.24-.84.28-1.16.28-.97 0-1.62-.33-2.06-.76-.47-.46-.82-1.15-.82-1.99s.35-1.52.82-1.98c.46-.45 1.14-.76 1.96-.76.35 0 .75.07 1.26.29v1.4c-.27-.28-.67-.56-1.23-.56-.44 0-.79.14-1.07.41-.29.28-.5.71-.5 1.21 0 .54.22.93.46 1.16.11.11.49.44 1.13.44.31 0 .74-.09 1.2-.54v1.39Z" data-color="2"/>
        <path fill="#72c7a7" d="M51.79 31.11c-.31.31-.85.57-1.53.57s-1.22-.25-1.53-.57c-.35-.35-.53-.86-.53-1.31s.17-.95.53-1.31c.31-.31.85-.57 1.53-.57s1.22.25 1.53.57c.35.35.53.86.53 1.31s-.17.95-.53 1.31m-2.17-1.97a.88.88 0 0 0-.26.66c0 .32.13.53.26.66.14.14.35.25.64.25.25 0 .46-.09.63-.25.17-.17.26-.38.26-.66s-.09-.49-.26-.66c-.16-.17-.38-.25-.64-.25s-.47.09-.64.25Z" data-color="2"/>
        <path fill="#72c7a7" d="M52.95 28.05h1.13v.42c.35-.44.76-.51 1.09-.51.31 0 .71.06 1.01.35.33.33.35.75.35 1.03v2.22H55.4v-1.8c0-.23 0-.52-.19-.7a.6.6 0 0 0-.43-.16c-.24 0-.39.09-.47.19-.19.19-.22.44-.22.67v1.8h-1.13v-3.51Z" data-color="2"/>
        <path fill="#72c7a7" d="M58.5 28.96v2.6h-1.13v-2.6h-.39v-.91h.39v-1.13h1.13v1.13h.7v.91z" data-color="2"/>
        <path fill="#72c7a7" d="M63.21 30h-2.62c0 .19.07.44.21.6.17.19.41.22.58.22s.34-.03.46-.1c.02 0 .15-.09.24-.29l1.07.11c-.16.5-.47.76-.68.88-.34.2-.72.26-1.11.26-.53 0-.99-.09-1.4-.5-.31-.31-.53-.77-.53-1.35 0-.5.18-1.02.53-1.38.42-.42.95-.5 1.35-.5s.96.07 1.39.53c.42.44.5.99.5 1.42v.12Zm-1.05-.67s-.06-.25-.23-.41a.78.78 0 0 0-.54-.2.76.76 0 0 0-.77.61h1.53Z" data-color="2"/>
        <path fill="#72c7a7" d="M63.84 28.05h1.13v.41c.29-.44.72-.49.98-.49.15 0 .42.02.66.16.18.1.33.28.43.49a1.36 1.36 0 0 1 1.2-.65c.42 0 .77.13.98.33.34.32.36.79.36 1.05v2.22h-1.13v-1.78c0-.18 0-.5-.15-.68a.5.5 0 0 0-.41-.19.55.55 0 0 0-.44.21c-.15.19-.17.46-.17.69v1.75h-1.13v-1.83c0-.24 0-.51-.18-.69a.5.5 0 0 0-.38-.14c-.15 0-.28.04-.39.14-.21.2-.22.6-.22.72v1.79h-1.13v-3.51Z" data-color="2"/>
        <path fill="#72c7a7" d="M71.53 33.36H70.4v-5.31h1.13v.42c.37-.48.83-.54 1.09-.54.63 0 1.02.27 1.24.5.31.31.53.79.53 1.37 0 .61-.21 1.06-.56 1.41s-.72.47-1.19.47c-.7 0-1-.35-1.12-.52v2.2Zm.19-4.19c-.18.18-.27.43-.27.65s.09.45.25.62c.17.17.4.27.65.27.21 0 .44-.09.61-.24.18-.17.28-.44.28-.67a.88.88 0 0 0-.27-.64.9.9 0 0 0-.61-.24c-.31 0-.52.15-.63.26Z" data-color="2"/>
        <path fill="#72c7a7" d="M78.45 31.11c-.31.31-.85.57-1.53.57s-1.22-.25-1.53-.57c-.35-.35-.53-.86-.53-1.31s.17-.95.53-1.31c.31-.31.85-.57 1.53-.57s1.22.25 1.53.57c.35.35.53.86.53 1.31s-.17.95-.53 1.31m-2.17-1.97a.88.88 0 0 0-.26.66c0 .32.13.53.26.66.14.14.35.25.64.25.25 0 .46-.09.63-.25.17-.17.26-.38.26-.66s-.09-.49-.26-.66c-.16-.17-.38-.25-.64-.25s-.47.09-.64.25Z" data-color="2"/>
        <path fill="#72c7a7" d="M79.61 28.05h1.13v.55c.1-.2.26-.38.44-.49.19-.12.39-.15.61-.15.14 0 .24.02.37.05l-.06 1.06c-.15-.08-.31-.13-.51-.13-.24 0-.42.09-.57.24-.25.27-.28.64-.28.94v1.42h-1.13v-3.51Z" data-color="2"/>
        <path fill="#72c7a7" d="M85.13 28.05h1.13v3.51h-1.13v-.42c-.31.47-.75.54-1.04.54-.5 0-.93-.13-1.31-.54-.37-.39-.51-.85-.51-1.31 0-.59.22-1.09.54-1.42s.73-.48 1.22-.48c.3 0 .78.07 1.1.51zm-1.44 1.11c-.12.12-.26.32-.26.64s.13.52.24.63c.16.17.4.28.67.28.23 0 .44-.09.59-.24.15-.14.28-.36.28-.66 0-.25-.09-.49-.26-.64a.9.9 0 0 0-.63-.24c-.24 0-.47.1-.62.25Z" data-color="2"/>
        <path fill="#72c7a7" d="M87.06 28.05h1.13v.55c.1-.2.26-.38.44-.49.19-.12.39-.15.61-.15.14 0 .24.02.37.05l-.06 1.06c-.15-.08-.32-.13-.51-.13-.24 0-.42.09-.57.24-.25.27-.28.64-.28.94v1.42h-1.13v-3.51Z" data-color="2"/>
        <path fill="#72c7a7" d="m91.51 31.11-1.68-3.06h1.31l.99 1.9.97-1.9h1.27l-2.83 5.31h-1.27z" data-color="2"/>
        <path fill="#72c7a7" d="M100.46 31.39c-.46.24-.84.28-1.16.28-.97 0-1.62-.33-2.06-.76-.47-.46-.82-1.15-.82-1.99s.35-1.52.82-1.98c.46-.45 1.14-.76 1.96-.76.35 0 .75.07 1.26.29v1.4c-.27-.28-.67-.56-1.23-.56-.44 0-.79.14-1.07.41-.29.28-.5.71-.5 1.21 0 .54.22.93.46 1.16.11.11.49.44 1.13.44.31 0 .74-.09 1.2-.54v1.39Z" data-color="2"/>
        <path fill="#72c7a7" d="M101.25 25.82h1.13v2.64c.14-.17.29-.29.43-.36.24-.13.43-.15.68-.15.28 0 .68.04.99.35.32.32.35.76.35 1.02v2.23h-1.13v-1.8c0-.24 0-.53-.19-.7-.1-.1-.28-.16-.44-.16-.24 0-.39.11-.45.17-.23.22-.24.56-.24.73v1.75h-1.13V25.8Z" data-color="2"/>
        <path fill="#72c7a7" d="M106.28 25.89c.37 0 .66.29.66.66s-.29.66-.66.66-.66-.29-.66-.66.29-.66.66-.66m.57 2.16v3.51h-1.13v-3.51z" data-color="2"/>
        <path fill="#72c7a7" d="M107.73 28.05h1.13v.42c.35-.44.76-.51 1.09-.51.31 0 .71.06 1.01.35.33.33.35.75.35 1.03v2.22h-1.13v-1.8c0-.23 0-.52-.19-.7a.6.6 0 0 0-.43-.16c-.24 0-.39.09-.47.19-.19.19-.22.44-.22.67v1.8h-1.13v-3.51Z" data-color="2"/>
        <path fill="#72c7a7" d="M115.71 30h-2.62c0 .19.07.44.21.6.17.19.41.22.58.22s.34-.03.46-.1c.02 0 .15-.09.24-.29l1.07.11c-.16.5-.47.76-.68.88-.34.2-.72.26-1.11.26-.53 0-.99-.09-1.4-.5-.31-.31-.53-.77-.53-1.35 0-.5.18-1.02.53-1.38.43-.42.95-.5 1.35-.5s.96.07 1.39.53c.42.44.5.99.5 1.42v.12Zm-1.04-.67s-.06-.25-.23-.41a.78.78 0 0 0-.54-.2.76.76 0 0 0-.77.61h1.53Z" data-color="2"/>
        <path fill="#72c7a7" d="M118.49 28.95c-.17-.1-.4-.2-.62-.2-.12 0-.25.03-.32.1-.04.04-.07.1-.07.16 0 .08.06.13.11.16.08.05.2.07.34.12l.3.09c.2.06.4.14.58.31.2.19.28.4.28.67 0 .46-.2.76-.36.92-.35.35-.77.4-1.14.4-.47 0-.98-.1-1.44-.5l.48-.76c.11.09.27.2.39.26.16.08.32.11.47.11.07 0 .25 0 .35-.08.07-.05.12-.14.12-.23 0-.06-.02-.14-.13-.2-.08-.05-.18-.08-.35-.13l-.28-.09c-.2-.06-.42-.17-.57-.32-.17-.17-.25-.37-.25-.64 0-.34.13-.62.34-.81.31-.29.74-.35 1.06-.35.52 0 .88.13 1.16.3l-.45.72Z" data-color="2"/>
        <path fill="#72c7a7" d="M123.28 30h-2.62c0 .19.07.44.21.6.17.19.41.22.58.22s.34-.03.46-.1c.02 0 .15-.09.24-.29l1.07.11c-.16.5-.47.76-.68.88-.34.2-.72.26-1.11.26-.53 0-.99-.09-1.4-.5-.31-.31-.53-.77-.53-1.35 0-.5.18-1.02.53-1.38.42-.42.95-.5 1.35-.5s.96.07 1.39.53c.42.44.5.99.5 1.42v.12Zm-1.05-.67s-.06-.25-.23-.41a.78.78 0 0 0-.54-.2.76.76 0 0 0-.77.61h1.53Z" data-color="2"/>
        <path fill="#72c7a7" d="m125.56 31.56.84-5.25h1.01l1.31 3.14 1.31-3.14h1.01l.84 5.25h-1.21l-.42-3.13-1.31 3.13h-.42l-1.31-3.13-.42 3.13h-1.21Z" data-color="2"/>
        <path fill="#72c7a7" d="M136.16 30h-2.62c0 .19.07.44.21.6.17.19.41.22.58.22s.34-.03.46-.1c.02 0 .15-.09.24-.29l1.07.11c-.16.5-.47.76-.68.88-.34.2-.72.26-1.11.26-.53 0-.99-.09-1.4-.5-.31-.31-.53-.77-.53-1.35 0-.5.18-1.02.53-1.38.42-.42.95-.5 1.35-.5s.96.07 1.39.53c.42.44.5.99.5 1.42v.12Zm-1.05-.67s-.06-.25-.23-.41a.78.78 0 0 0-.54-.2.76.76 0 0 0-.77.61h1.53Z" data-color="2"/>
        <path fill="#72c7a7" d="M140.62 31.56h-1.13v-.42c-.17.25-.49.54-1.11.54-.52 0-.9-.17-1.2-.48-.36-.36-.55-.87-.55-1.41 0-.58.21-1.06.55-1.38.31-.29.74-.47 1.22-.47.39 0 .81.13 1.09.51v-2.62h1.13v5.74Zm-2.56-2.42a.94.94 0 0 0-.28.67c0 .26.11.49.28.64.17.17.39.24.59.24.21 0 .46-.09.64-.26.13-.13.26-.34.26-.63s-.12-.5-.25-.65a.82.82 0 0 0-.64-.26.82.82 0 0 0-.61.24Z" data-color="2"/>
        <path fill="#72c7a7" d="M142.1 25.89c.37 0 .66.29.66.66s-.29.66-.66.66-.66-.29-.66-.66.29-.66.66-.66m.57 2.16v3.51h-1.13v-3.51z" data-color="2"/>
        <path fill="#72c7a7" d="M146.18 29.16c-.28-.23-.56-.27-.74-.27-.35 0-.57.17-.64.25-.15.15-.26.38-.26.66 0 .26.09.48.24.63.17.19.43.28.68.28.2 0 .46-.05.72-.27v1.02c-.3.17-.58.21-.9.21-.59 0-1.04-.21-1.36-.53-.27-.26-.55-.7-.55-1.34 0-.6.25-1.07.58-1.38.39-.37.86-.5 1.34-.5.31 0 .59.05.89.2v1.03Z" data-color="2"/>
        <path fill="#72c7a7" d="M147.51 25.89c.37 0 .66.29.66.66s-.29.66-.66.66-.66-.29-.66-.66.29-.66.66-.66m.56 2.16v3.51h-1.13v-3.51z" data-color="2"/>
        <path fill="#72c7a7" d="M148.96 28.05h1.13v.42c.35-.44.76-.51 1.09-.51.31 0 .71.06 1.01.35.33.33.35.75.35 1.03v2.22h-1.13v-1.8c0-.23 0-.52-.19-.7a.6.6 0 0 0-.43-.16c-.24 0-.39.09-.47.19-.19.19-.22.44-.22.67v1.8h-1.13v-3.51Z" data-color="2"/>
        <path fill="#72c7a7" d="M156.94 30h-2.62c0 .19.07.44.21.6.17.19.41.22.58.22s.34-.03.46-.1c.02 0 .15-.09.24-.29l1.07.11c-.16.5-.47.76-.68.88-.34.2-.72.26-1.11.26-.53 0-.99-.09-1.4-.5-.31-.31-.53-.77-.53-1.35 0-.5.18-1.02.53-1.38.42-.42.95-.5 1.35-.5s.96.07 1.39.53c.42.44.5.99.5 1.42v.12Zm-1.05-.67s-.06-.25-.23-.41a.78.78 0 0 0-.54-.2.76.76 0 0 0-.77.61h1.53Z" data-color="2"/>
    </g>
</svg>
