<?xml version="1.0" encoding="UTF-8"?>
<svg data-bbox="4.11 5.14 576.08 49.06" viewBox="0 0 584.31 59.35" xmlns="http://www.w3.org/2000/svg" data-type="color">
    <g>
        <path fill="#72c6a6" d="M47.99 53.35H35.71c-1.78-9.87-3.69-19.67-4.83-29.61-.5 4.12-.78 8.31-1.35 12.42l-2.41 17.18h-12.5L4.11 5.99h12.64c.92 5.68 1.78 11.43 2.63 17.11.21 1.35.43 2.7.64 4.05.36 2.84.57 5.61.92 8.45.28-2.63.43-5.25.78-7.88.99-7.24 2.34-14.48 3.62-21.73h11l2.13 11.43c1.14 6.18 1.99 12.5 2.7 18.74.43-5.18.85-10.37 1.63-15.48l2.27-14.7h12.5l-9.58 47.36Z" data-color="1"/>
        <path fill="#72c6a6" d="M58.22 53.35V5.99h23.71v11.15H71v6.89h9.8v10.72H71v7.24h10.93v11.36z" data-color="1"/>
        <path fill="#72c6a6" d="M83.99 53.35V5.99h12.78v36h9.58v11.36H83.98Z" data-color="1"/>
        <path fill="#77787b" d="M131.84 52.5c-2.77 1.21-4.54 1.7-7.6 1.7-13.63 0-19.45-12.28-19.45-24.35 0-12.99 6.67-24.71 20.95-24.71 2.56 0 3.98.21 6.32 1.21v13.49c-1.7-1.77-3.34-2.84-5.89-2.84-6.75 0-8.31 7.24-8.31 12.64s1.56 12.21 8.09 12.21c2.77 0 4.69-1.28 6.67-3.05z" data-color="2"/>
        <path fill="#77787b" d="M151.22 54.2c-5.04 0-9.73-2.48-12.92-6.32-4.12-4.97-5.33-12.42-5.33-18.67 0-11.15 5.18-24.07 18.18-24.07s17.82 13.06 17.82 24.07-4.47 24.99-17.75 24.99m-.14-37.13c-4.4 0-4.83 9.51-4.83 12.57s.28 12.57 4.69 12.57 4.76-9.44 4.76-12.5-.21-12.64-4.62-12.64" data-color="2"/>
        <path fill="#77787b" d="m206.39 53.35-.99-21.58c-.14-2.84-.14-5.75-.28-8.59-.28 3.05-.71 6.11-1.28 9.09l-3.98 21.09h-10.44l-3.69-22.79c-.43-2.41-.64-4.9-.85-7.38-.07 3.48 0 7.03-.21 10.51l-1.14 19.67h-13.7l5.54-47.36h15.9c1.42 8.45 3.05 16.68 3.69 25.21.92-8.52 2.84-16.83 4.4-25.21h15.76l4.61 47.36h-13.35Z" data-color="2"/>
        <path fill="#77787b" d="M220.24 53.35V5.99h23.71v11.15h-10.93v6.89h9.8v10.72h-9.8v7.24h10.93v11.36z" data-color="2"/>
        <path fill="#77787b" d="M278.03 53.35V34.32h-6.11v19.03h-12.78V5.99h12.78v16.76h6.11V5.99h12.78v47.36z" data-color="2"/>
        <path fill="#77787b" d="M294 53.35V5.99h23.71v11.15h-10.93v6.89h9.8v10.72h-9.8v7.24h10.93v11.36z" data-color="2"/>
        <path fill="#77787b" d="m342.07 53.35-.99-6.04h-8.59l-1.07 6.04h-13.21l11.43-47.36h15.62l10.01 47.36h-13.21Zm-2.49-16.12c-.99-6.6-1.85-13.21-2.41-19.88-.28 2.2-.5 4.47-.78 6.67-.64 4.4-1.35 8.8-2.2 13.21h5.4Z" data-color="2"/>
        <path fill="#77787b" d="M355.56 53.35V5.99h12.78v36h9.58v11.36h-22.37Z" data-color="2"/>
        <path fill="#77787b" d="M393.54 17.35v36h-12.78v-36h-7.03V5.99h26.84v11.36z" data-color="2"/>
        <path fill="#77787b" d="M420.81 53.35V34.32h-6.11v19.03h-12.78V5.99h12.78v16.76h6.11V5.99h12.78v47.36z" data-color="2"/>
        <path fill="#77787b" d="M458.01 33.33v20.02h-12.78V33.33L433.44 6h13.35c1.56 4.83 3.27 9.66 4.47 14.63 1.35-4.9 2.84-9.8 4.47-14.63h13.21z" data-color="2"/>
        <path fill="#72c6a6" d="M489.96 53.35c-3.34-9.02-7.03-17.96-9.66-27.26.36 5.04.78 10.15.78 15.19v12.07h-12.21V5.99h12.21l6.39 16.61c1.49 3.9 2.7 7.95 3.91 11.93-.71-5.82-1.42-11.57-1.42-17.47V5.99h12.21v47.36z" data-color="1"/>
        <path fill="#72c6a6" d="M505.44 53.35V5.99h23.71v11.15h-10.93v6.89h9.8v10.72h-9.8v7.24h10.93v11.36z" data-color="1"/>
        <path fill="#72c6a6" d="M553.58 22.04c-1.63-2.49-4.33-5.18-7.53-5.18-1.63 0-3.34 1.06-3.34 2.84 0 4.83 12.21 6.11 12.21 18.46 0 8.8-5.96 16.04-15.05 16.04-3.34 0-6.6-.78-9.66-2.06V37.3c1.92 2.63 4.69 5.18 8.09 5.18 1.85 0 3.76-1.06 3.76-3.12 0-5.04-12.07-6.67-12.07-18.67 0-8.24 5.89-15.55 14.41-15.55 3.19 0 6.32.92 9.16 2.41v14.48Z" data-color="1"/>
        <path fill="#72c6a6" d="M578.85 22.04c-1.63-2.49-4.33-5.18-7.53-5.18-1.63 0-3.34 1.06-3.34 2.84 0 4.83 12.21 6.11 12.21 18.46 0 8.8-5.96 16.04-15.05 16.04-3.34 0-6.6-.78-9.66-2.06V37.3c1.92 2.63 4.69 5.18 8.09 5.18 1.85 0 3.76-1.06 3.76-3.12 0-5.04-12.07-6.67-12.07-18.67 0-8.24 5.89-15.55 14.41-15.55 3.19 0 6.32.92 9.16 2.41v14.48Z" data-color="1"/>
    </g>
</svg>
