<?xml version="1.0" encoding="UTF-8"?>
<svg data-bbox="1288.2 732.9 287.3 50.644" viewBox="0 0 1920 1080" xmlns="http://www.w3.org/2000/svg" data-type="color">
    <g>
        <path d="M1288.4 733.7h9.2c10.1 0 13 8.1 13 16.5s-4.1 16.6-13.1 16.6h-9.2v-33.2Zm1.8 31.4h7.6c5.3 0 11.2-3.4 11.2-14.9s-7.4-14.8-11.6-14.8h-7.2z" fill="#ffffff" data-color="1"/>
        <path d="M1314.8 733.7h11.8c4.9 0 8.9 2.1 8.9 8.6s-2.3 7.8-6 8.5c4.2.6 5.2 3.8 5.5 7.2s-.2 7.2.9 8.9h-1.9c-1.1-2.3-.4-6.1-.8-9.3s-1.7-5.8-6.6-5.8h-10v15.1h-1.7v-33.2Zm11.7 16.3c4.1 0 7.2-2.3 7.2-7.6s-3.4-6.9-7.2-6.9h-10v14.6h10Z" fill="#ffffff" data-color="1"/>
        <path d="m1357.5 733.7 8.1 33.2h-9.2l-.9-5.8h-6.9l-.9 5.8h-9.1l7.9-33.2h10.9Zm-5.5 6.8-2.4 14.1h4.8z" fill="#ffffff" data-color="1"/>
        <path d="M1379.6 733.7c2.5 0 4.5.5 5.9 1.4s2.4 2.1 3.1 3.7c.7 1.5 1.1 3.3 1.3 5.3s.2 4.1.2 6.3 0 4.3-.2 6.3-.6 3.8-1.3 5.3-1.7 2.8-3.1 3.7-3.3 1.4-5.9 1.4h-12.5v-33.2h12.5Zm-2.2 26.9c.8 0 1.5-.1 2-.3s.9-.7 1.1-1.5c.3-.7.4-1.8.5-3.2 0-1.4.1-3.2.1-5.4s0-4-.1-5.4c0-1.4-.2-2.4-.5-3.2s-.6-1.2-1.1-1.5c-.5-.2-1.2-.3-2-.3h-1.7v20.7h1.7Z" fill="#ffffff" data-color="1"/>
        <path d="M1407.2 733.7c1.6 0 3 .2 4.2.7 1.2.4 2.1 1 2.8 1.8s1.3 1.7 1.6 2.8.5 2.3.5 3.5c0 2.2-.4 4-1.3 5.4s-2.3 2.2-4.3 2.5c2.1.3 3.5 1 4.3 2.3s1.2 3 1.2 5.3v5.5c0 .4 0 .8.1 1.1 0 .3.1.6.2.8s.2.4.4.5c.1.2.3.3.6.5v.5h-9.2c-.2-.4-.4-.9-.5-1.5s-.2-1.2-.2-1.8v-5.2c0-.9 0-1.7-.1-2.3 0-.6-.3-1.1-.5-1.5s-.5-.6-.9-.7-.8-.2-1.3-.2h-2.3V767h-8.6v-33.2h13.5Zm-3.1 14c1.2 0 2.2-.4 2.7-1.1.6-.7.9-1.7.9-2.9s-.3-2.4-.9-3-1.5-.9-2.8-.9h-1.7v7.8h1.7Z" fill="#ffffff" data-color="1"/>
        <path d="M1428.7 733.7v33.2h-8.6v-33.2z" fill="#ffffff" data-color="1"/>
        <path d="m1448.8 733.7 8.1 33.2h-9.2l-.9-5.8h-6.9l-.9 5.8h-9.1l7.9-33.2h10.9Zm-5.5 6.8-2.4 14.1h4.8z" fill="#ffffff" data-color="1"/>
        <path d="m1468 733.7 5.6 20.5v-20.5h8.1v33.2h-9.5l-5.8-20.5v20.5h-8.1v-33.2z" fill="#ffffff" data-color="1"/>
        <path d="M1492.8 761.7v5.2h-5.2v-5.2z" fill="#ffffff" data-color="1"/>
        <path d="M1509 767.7c-8.5 0-13.4-7.7-13.4-17.4s5-17.4 13.4-17.4 13.4 7.7 13.4 17.4-5 17.4-13.4 17.4m0-1.8c7.3 0 11.7-7.1 11.7-15.6s-4.3-15.6-11.7-15.6-11.7 7.1-11.7 15.6 4.3 15.6 11.7 15.6" fill="#ffffff" data-color="1"/>
        <path d="M1526.1 733.7h11.8c4.9 0 8.9 2.1 8.9 8.6s-2.3 7.8-6 8.5c4.2.6 5.2 3.8 5.5 7.2s-.2 7.2.9 8.9h-1.9c-1.1-2.3-.4-6.1-.8-9.3s-1.7-5.8-6.6-5.8h-10v15.1h-1.7v-33.2Zm11.8 16.3c4.1 0 7.2-2.3 7.2-7.6s-3.4-6.9-7.2-6.9h-10v14.6h10Z" fill="#ffffff" data-color="1"/>
        <path d="M1575.5 750.6v16.3h-1.5v-7.1c-1.4 4.8-5.7 7.9-10.7 7.9-8.5 0-13.3-7.7-13.3-17.2s4.8-17.6 13.3-17.6S1574 737 1575 744h-1.7c-1.3-5.7-4.9-9.3-10-9.3-7.6 0-11.6 7.5-11.6 15.8s3.9 15.4 11.6 15.4 10.9-5.4 10.7-13.5h-10.4v-1.8z" fill="#ffffff" data-color="1"/>
        <path d="M1291.1 777.7c0-.1-.2-.2-.4-.2s-.2 0-.3.1-.1.2-.2.4 0 .4 0 .7v3.1c0 .2.1.3.2.4 0 0 .2.1.3.1h.3c.1 0 .1-.1.2-.3v-1.3h1.8v.5c0 .5 0 .9-.2 1.2-.1.3-.3.6-.5.7-.2.2-.5.3-.7.4h-.9c-.5 0-.9 0-1.2-.2-.3-.1-.6-.3-.8-.6s-.3-.7-.4-1.1-.1-1-.1-1.7 0-1.2.1-1.7c0-.5.2-.8.4-1.1s.4-.5.8-.6c.3-.1.7-.2 1.2-.2s.8 0 1 .2.5.2.7.4.3.4.4.7c0 .3.1.6.1.9v.4h-1.8v-.4c0-.4 0-.7-.1-.8Z" fill="#ffffff" data-color="1"/>
        <path d="M1295.6 778.2c0-.5.2-.8.4-1.1s.5-.5.8-.6.7-.2 1.2-.2.9 0 1.2.2c.3.1.6.3.8.6s.3.7.4 1.1c0 .5.1 1 .1 1.7s0 1.2-.1 1.7c0 .5-.2.8-.4 1.1s-.5.5-.8.6-.7.2-1.2.2-.9 0-1.2-.2-.6-.3-.8-.6-.3-.7-.4-1.1c0-.5-.1-1-.1-1.7s0-1.2.1-1.7m1.7 2.9v.7c0 .2.1.3.2.4 0 0 .2.1.3.1s.2 0 .3-.1l.2-.4V778c0-.2-.1-.3-.2-.4s-.2-.1-.3-.1-.2 0-.3.1-.1.2-.2.4 0 .4 0 .7z" fill="#ffffff" data-color="1"/>
        <path d="m1305 776.4 1.2 4.3v-4.3h1.7v7h-2l-1.2-4.3v4.3h-1.7v-7z" fill="#ffffff" data-color="1"/>
        <path d="M1310.3 778v-1.5h4.5v1.5h-1.4v5.4h-1.8V778z" fill="#ffffff" data-color="1"/>
        <path d="M1321.3 776.4v1.5h-2.3v1.2h2.2v1.4h-2.2v1.4h2.4v1.5h-4.2v-7z" fill="#ffffff" data-color="1"/>
        <path d="m1326.5 776.4.7 4.1.7-4.1h2.6v7h-1.7v-5.2l-1 5.2h-1.3l-1-5.2v5.2h-1.7v-7h2.6Z" fill="#ffffff" data-color="1"/>
        <path d="M1336 776.4c.3 0 .6 0 .9.2.3.1.5.3.6.5.2.2.3.4.4.7 0 .3.1.5.1.9 0 .7-.2 1.3-.6 1.6-.4.4-1 .5-1.7.5h-.6v2.7h-1.8v-7h2.7Zm-.5 3c.2 0 .4 0 .5-.2.1-.1.2-.4.2-.6 0-.6-.2-.8-.7-.8h-.3v1.7h.3Z" fill="#ffffff" data-color="1"/>
        <path d="M1340.5 778.2c0-.5.2-.8.4-1.1s.5-.5.8-.6.7-.2 1.2-.2.9 0 1.2.2c.3.1.6.3.8.6s.3.7.4 1.1c0 .5.1 1 .1 1.7s0 1.2-.1 1.7c0 .5-.2.8-.4 1.1s-.5.5-.8.6-.7.2-1.2.2-.9 0-1.2-.2-.6-.3-.8-.6-.3-.7-.4-1.1c0-.5-.1-1-.1-1.7s0-1.2.1-1.7m1.7 2.9v.7c0 .2.1.3.2.4 0 0 .2.1.3.1s.2 0 .3-.1l.2-.4V778c0-.2-.1-.3-.2-.4s-.2-.1-.3-.1-.2 0-.3.1-.1.2-.2.4 0 .4 0 .7z" fill="#ffffff" data-color="1"/>
        <path d="M1350.8 776.4c.3 0 .6 0 .9.1.2 0 .4.2.6.4q.3.3.3.6c0 .2.1.5.1.7 0 .5 0 .8-.3 1.1-.2.3-.5.5-.9.5.4 0 .7.2.9.5s.2.6.2 1.1v1.7c0 .1 0 0 .1 0h-1.9s0-.2-.1-.3 0-.2 0-.4v-1.7c0-.1 0-.2-.1-.3l-.2-.2h-.8v2.8h-1.8v-7h2.8Zm-.7 3c.3 0 .5 0 .6-.2.1-.1.2-.3.2-.6s0-.5-.2-.6c-.1-.1-.3-.2-.6-.2h-.3v1.6h.4Z" fill="#ffffff" data-color="1"/>
        <path d="m1358.9 776.4 1.7 7h-1.9l-.2-1.2h-1.4l-.2 1.2h-1.9l1.7-7h2.3Zm-1.2 1.4-.5 3h1z" fill="#ffffff" data-color="1"/>
        <path d="M1365.7 776.4c.3 0 .6 0 .9.1.2 0 .4.2.6.4q.3.3.3.6c0 .2.1.5.1.7 0 .5 0 .8-.3 1.1-.2.3-.5.5-.9.5.4 0 .7.2.9.5s.2.6.2 1.1v1.7c0 .1 0 0 .1 0h-1.9s0-.2-.1-.3 0-.2 0-.4v-1.7c0-.1 0-.2-.1-.3l-.2-.2h-.8v2.8h-1.8v-7h2.8Zm-.7 3c.3 0 .5 0 .6-.2.1-.1.2-.3.2-.6s0-.5-.2-.6c-.1-.1-.3-.2-.6-.2h-.3v1.6h.4Z" fill="#ffffff" data-color="1"/>
        <path d="M1369.6 776.4h2l.7 2.4.7-2.4h2l-1.8 4.2v2.7h-1.8v-2.7l-1.7-4.2Z" fill="#ffffff" data-color="1"/>
        <path d="m1385.4 783.4-.3-.4c-.1 0-.3.1-.4.2-.1 0-.3.1-.4.2-.1 0-.3 0-.4.1s-.3 0-.5 0c-.3 0-.6 0-.8-.1-.3 0-.5-.2-.7-.3-.2-.2-.3-.4-.5-.6s-.2-.5-.2-.9.1-.8.3-1.1.5-.6 1-.9c-.2-.2-.3-.5-.5-.8-.1-.3-.2-.5-.2-.8s0-.5.1-.7c0-.2.2-.4.4-.5s.4-.3.6-.3.5-.1.8-.1.6 0 .8.1c.2 0 .4.2.6.3s.3.3.4.5c0 .2.1.4.1.7s-.1.7-.3 1-.5.6-.9.8l.8 1.1c0-.1.1-.2.2-.4v-.4h1.5c0 .4 0 .8-.2 1.1s-.3.7-.6 1l.9 1.3h-1.9Zm-2.3-2.4c0 .1-.1.2-.1.3v.3s0 .2.2.3c0 0 .2.1.2.2h.6c.1 0 .2-.1.3-.2l-.9-1.3c-.1.1-.2.2-.3.4m.4-2.8c0 .1.2.3.3.5.2-.2.4-.4.4-.5s.1-.3.1-.4 0-.3-.1-.3c0 0-.2-.1-.4-.1s-.3 0-.4.1c0 0-.1.2-.1.3s0 .2.1.4Z" fill="#ffffff" data-color="1"/>
        <path d="M1393.3 778v-1.5h4.5v1.5h-1.4v5.4h-1.8V778z" fill="#ffffff" data-color="1"/>
        <path d="M1403 776.4c.3 0 .6 0 .9.1.2 0 .4.2.6.4q.3.3.3.6c0 .2.1.5.1.7 0 .5 0 .8-.3 1.1-.2.3-.5.5-.9.5.4 0 .7.2.9.5s.2.6.2 1.1v1.7c0 .1 0 0 .1 0h-1.9s0-.2-.1-.3 0-.2 0-.4v-1.7c0-.1 0-.2-.1-.3l-.2-.2h-.8v2.8h-1.8v-7h2.8Zm-.7 3c.3 0 .5 0 .6-.2.1-.1.2-.3.2-.6s0-.5-.2-.6c-.1-.1-.3-.2-.6-.2h-.3v1.6h.4Z" fill="#ffffff" data-color="1"/>
        <path d="m1411.1 776.4 1.7 7h-1.9l-.2-1.2h-1.4l-.2 1.2h-1.9l1.7-7h2.3Zm-1.1 1.4-.5 3h1z" fill="#ffffff" data-color="1"/>
        <path d="M1417.7 776.4c.5 0 .9 0 1.2.3.3.2.5.4.7.8.1.3.2.7.3 1.1v2.6c0 .4-.1.8-.3 1.1-.1.3-.4.6-.7.8q-.45.3-1.2.3h-2.6v-7zm-.5 5.7h.4c.1 0 .2-.2.2-.3 0-.2 0-.4.1-.7s0-.7 0-1.1v-1.1c0-.3 0-.5-.1-.7 0-.2-.1-.3-.2-.3h-.8v4.3h.4Z" fill="#ffffff" data-color="1"/>
        <path d="M1424.4 776.4v7h-1.8v-7z" fill="#ffffff" data-color="1"/>
        <path d="M1426.7 778v-1.5h4.5v1.5h-1.4v5.4h-1.8V778z" fill="#ffffff" data-color="1"/>
        <path d="M1435.3 776.4v7h-1.8v-7z" fill="#ffffff" data-color="1"/>
        <path d="M1438 778.2c0-.5.2-.8.4-1.1s.5-.5.8-.6.7-.2 1.2-.2.9 0 1.2.2c.3.1.6.3.8.6s.3.7.4 1.1c0 .5.1 1 .1 1.7s0 1.2-.1 1.7c0 .5-.2.8-.4 1.1s-.5.5-.8.6-.7.2-1.2.2-.9 0-1.2-.2-.6-.3-.8-.6-.3-.7-.4-1.1c0-.5-.1-1-.1-1.7s0-1.2.1-1.7m1.7 2.9v.7c0 .2.1.3.2.4 0 0 .2.1.3.1s.2 0 .3-.1l.2-.4V778c0-.2-.1-.3-.2-.4s-.2-.1-.3-.1-.2 0-.3.1-.1.2-.2.4 0 .4 0 .7z" fill="#ffffff" data-color="1"/>
        <path d="m1447.4 776.4 1.2 4.3v-4.3h1.7v7h-2l-1.2-4.3v4.3h-1.7v-7z" fill="#ffffff" data-color="1"/>
        <path d="m1456.6 776.4 1.7 7h-1.9l-.2-1.2h-1.4l-.2 1.2h-1.9l1.7-7h2.3Zm-1.2 1.4-.5 3h1z" fill="#ffffff" data-color="1"/>
        <path d="M1462.3 776.4v5.5h2.2v1.5h-4v-7z" fill="#ffffff" data-color="1"/>
        <path d="M1474.1 777.7c0-.1-.2-.2-.4-.2s-.2 0-.3.1-.1.2-.2.4 0 .4 0 .7v3.1c0 .2.1.3.2.4 0 0 .2.1.3.1h.3c.1 0 .1-.1.2-.3v-1.3h1.8v.5c0 .5 0 .9-.2 1.2-.1.3-.3.6-.5.7-.2.2-.5.3-.7.4h-.9c-.5 0-.9 0-1.2-.2-.3-.1-.6-.3-.8-.6s-.3-.7-.4-1.1-.1-1-.1-1.7 0-1.2.1-1.7.2-.8.4-1.1.4-.5.8-.6c.3-.1.7-.2 1.2-.2s.8 0 1 .2.5.2.7.4.3.4.4.7c0 .3.1.6.1.9v.4h-1.8v-.4c0-.4 0-.7-.1-.8Z" fill="#ffffff" data-color="1"/>
        <path d="M1480.5 776.4v2.6h1.1v-2.6h1.8v7h-1.8v-2.9h-1.1v2.9h-1.8v-7z" fill="#ffffff" data-color="1"/>
        <path d="M1487.9 776.4v7h-1.8v-7z" fill="#ffffff" data-color="1"/>
        <path d="m1492.7 776.4 1.2 4.3v-4.3h1.7v7h-2l-1.2-4.3v4.3h-1.7v-7z" fill="#ffffff" data-color="1"/>
        <path d="M1502.5 776.4v1.5h-2.3v1.2h2.2v1.4h-2.2v1.4h2.4v1.5h-4.2v-7z" fill="#ffffff" data-color="1"/>
        <path d="M1507.9 778.3c0-.2 0-.4-.1-.5 0-.1-.2-.2-.4-.2s-.3 0-.4.2-.1.3-.1.4c0 .2 0 .4.2.5q.15.15.6.3c.2 0 .5.2.7.3s.5.2.7.4.4.4.5.6.2.6.2 1c0 .7-.2 1.3-.6 1.6s-1 .5-1.8.5h-1c-.3 0-.5-.2-.7-.3s-.3-.4-.5-.6-.2-.6-.2-.9v-.2h1.8v.2c0 .3 0 .5.2.6.1.1.3.2.4.2s.3 0 .4-.2c.1-.1.2-.3.2-.5s0-.4-.2-.5c-.1-.1-.3-.2-.5-.3-.2 0-.4-.2-.7-.3-.2 0-.5-.2-.7-.4s-.4-.4-.5-.6-.2-.6-.2-1c0-.7.2-1.2.6-1.6s1-.6 1.7-.6 1.4.2 1.7.5c.4.3.5.9.5 1.6h-1.7v-.2Z" fill="#ffffff" data-color="1"/>
        <path d="M1516.5 776.4v1.5h-2.3v1.2h2.2v1.4h-2.2v1.4h2.4v1.5h-4.2v-7z" fill="#ffffff" data-color="1"/>
        <path d="m1526.3 776.4.7 4.1.7-4.1h2.6v7h-1.7v-5.2l-1 5.2h-1.3l-1-5.2v5.2h-1.7v-7h2.6Z" fill="#ffffff" data-color="1"/>
        <path d="M1537.2 776.4v1.5h-2.3v1.2h2.2v1.4h-2.2v1.4h2.4v1.5h-4.2v-7z" fill="#ffffff" data-color="1"/>
        <path d="M1542.5 776.4c.5 0 .9 0 1.2.3.3.2.5.4.7.8.1.3.2.7.3 1.1v2.6c0 .4-.1.8-.3 1.1-.1.3-.4.6-.7.8q-.45.3-1.2.3h-2.6v-7zm-.4 5.7h.4c.1 0 .2-.2.2-.3 0-.2 0-.4.1-.7s0-.7 0-1.1v-1.1c0-.3 0-.5-.1-.7 0-.2-.1-.3-.2-.3h-.8v4.3h.4Z" fill="#ffffff" data-color="1"/>
        <path d="M1549.2 776.4v7h-1.8v-7z" fill="#ffffff" data-color="1"/>
        <path d="M1554.6 777.7c0-.1-.2-.2-.4-.2s-.2 0-.3.1-.1.2-.2.4 0 .4 0 .7v3.1c0 .2.1.3.2.4 0 0 .2.1.3.1h.3c.1 0 .1-.1.2-.3v-1.3h1.8v.5c0 .5 0 .9-.2 1.2-.1.3-.3.6-.5.7-.2.2-.5.3-.7.4h-.9c-.5 0-.9 0-1.2-.2-.3-.1-.6-.3-.8-.6s-.3-.7-.4-1.1-.1-1-.1-1.7 0-1.2.1-1.7.2-.8.4-1.1.4-.5.8-.6c.3-.1.7-.2 1.2-.2s.8 0 1 .2.5.2.7.4.3.4.4.7c0 .3.1.6.1.9v.4h-1.8v-.4c0-.4 0-.7-.1-.8Z" fill="#ffffff" data-color="1"/>
        <path d="M1560.9 776.4v7h-1.8v-7z" fill="#ffffff" data-color="1"/>
        <path d="m1565.6 776.4 1.2 4.3v-4.3h1.7v7h-2l-1.2-4.3v4.3h-1.7v-7z" fill="#ffffff" data-color="1"/>
        <path d="M1575.5 776.4v1.5h-2.4v1.2h2.2v1.4h-2.2v1.4h2.4v1.5h-4.2v-7z" fill="#ffffff" data-color="1"/>
    </g>
</svg>
