<?xml version="1.0" encoding="UTF-8"?>
<svg data-bbox="6.17 6.17 530.49 90.44" viewBox="0 0 542.84 102.78" xmlns="http://www.w3.org/2000/svg" data-type="color">
    <g>
        <path fill="#77787b" d="M325.87 33.58v50.7h-18v-50.7h-9.9v-16h37.8v16z" data-color="1"/>
        <path fill="#77787b" d="M363.97 84.29v-26.8h-8.6v26.8h-18V17.58h18v23.6h8.6v-23.6h18v66.7h-18Z" data-color="1"/>
        <path fill="#77787b" d="M414.17 84.29c-3.4-9.2-6.9-18.4-10.2-27.7.2 2.9.3 5.9.3 8.8v18.9h-18V17.58h18.4c4.6 0 9.6.5 13.9 2.3 8 3.4 12 11.6 12 20 0 7.8-3.1 13.4-10.3 16.7l13.4 27.7h-19.5Zm-8.7-35.81c4.6 0 7.2-4.2 7.2-8.4 0-5.4-3.3-7.5-8.4-7.5v15.9z" data-color="1"/>
        <path fill="#77787b" d="M434.16 84.29V17.58h18v66.7h-18Z" data-color="1"/>
        <path fill="#77787b" d="M485.36 84.29h-18.3l-15.3-66.7h18.9c2.5 14.4 5.1 28.9 6.3 43.5.3-3.5.6-6.9 1-10.4.5-3.7 1.1-7.4 1.8-11l4.2-22.1h19.6z" data-color="1"/>
        <path fill="#77787b" d="M503.26 84.29V17.58h33.4v15.7h-15.4v9.7h13.8v15.1h-13.8v10.2h15.4v16h-33.4Z" data-color="1"/>
        <path fill="#f4f4f4" d="m272.49 40.89 21.12 34.72c7.77-9.85 11.14-19.17 11.53-30.71h-11.53v-2.98h25.52v2.98h-10.88c-.91 11.92-4.28 24.36-12.96 33.56l8.03 13.22h11.27v2.98h-23.58l-4.41-7.38c-6.22 5.31-16.32 9.33-25.13 9.33-17.75 0-27.21-11.92-27.21-26.95 0-10.75 9.46-21.12 25.52-27.34-3.37-5.83-7.38-12.18-7.38-19.05 0-10.24 8.55-17.1 20.34-17.1 10.37 0 19.43 6.35 19.43 16.2 0 8.29-7.77 13.99-19.69 18.53Zm12.44 43.67-23.71-39.52c-11.53 4.28-15.16 9.72-15.16 16.71 0 11.4 9.33 30.06 20.99 30.06 7.13 0 12.18-2.98 17.88-7.25m-2.07-63.88c0-6.61-3.5-11.53-10.24-11.53-5.57 0-10.88 3.63-10.88 10.24 0 4.15 3.24 10.36 9.07 19.04 8.81-3.63 12.05-7.77 12.05-17.75" data-color="2"/>
        <path fill="#72c6a6" d="M34.07 84.29c-3.4-9.2-6.9-18.4-10.2-27.7.2 2.9.3 5.9.3 8.8v18.9h-18V17.58h18.4c4.6 0 9.6.5 13.9 2.3 8 3.4 12 11.6 12 20 0 7.8-3.1 13.4-10.3 16.7l13.4 27.7h-19.5Zm-8.7-35.81c4.6 0 7.2-4.2 7.2-8.4 0-5.4-3.3-7.5-8.4-7.5v15.9z" data-color="3"/>
        <path fill="#72c6a6" d="M54.47 84.29V17.58h33.4v15.7h-15.4v9.7h13.8v15.1h-13.8v10.2h15.4v16h-33.4Z" data-color="3"/>
        <path fill="#72c6a6" d="M121.27 84.29h-18.3l-15.3-66.7h18.9c2.5 14.4 5.1 28.9 6.3 43.5.3-3.5.6-6.9 1-10.4.5-3.7 1.1-7.4 1.8-11l4.2-22.1h19.6z" data-color="3"/>
        <path fill="#72c6a6" d="M139.37 84.29V17.58h18v66.7h-18Z" data-color="3"/>
        <path fill="#72c6a6" d="M190.57 84.29h-18.3l-15.3-66.7h18.9c2.5 14.4 5.1 28.9 6.3 43.5.3-3.5.6-6.9 1-10.4.5-3.7 1.1-7.4 1.8-11l4.2-22.1h19.6z" data-color="3"/>
        <path fill="#72c6a6" d="M208.67 84.29V17.58h33.4v15.7h-15.4v9.7h13.8v15.1h-13.8v10.2h15.4v16h-33.4Z" data-color="3"/>
    </g>
</svg>
