<?xml version="1.0" encoding="UTF-8"?>
<svg data-bbox="4.11 4.11 529.72 49.06" viewBox="0 0 537.95 57.29" xmlns="http://www.w3.org/2000/svg" data-type="color">
    <g>
        <path fill="#77787b" d="M47.99 52.32H35.71c-1.78-9.87-3.69-19.67-4.83-29.61-.5 4.12-.78 8.31-1.35 12.42l-2.41 17.18h-12.5L4.11 4.97h12.64c.92 5.68 1.78 11.43 2.63 17.11.21 1.35.43 2.7.64 4.05.35 2.84.57 5.61.92 8.45.28-2.63.43-5.25.78-7.88.99-7.24 2.34-14.48 3.62-21.72h11l2.13 11.43c1.14 6.18 1.99 12.5 2.7 18.74.43-5.18.85-10.37 1.63-15.48l2.27-14.7h12.5l-9.58 47.36Z" data-color="1"/>
        <path fill="#77787b" d="M57.29 52.32V4.97H81v11.15H70.07v6.89h9.8v10.72h-9.8v7.24H81v11.36H57.29Z" data-color="1"/>
        <path fill="#77787b" d="M82.85 52.32V4.97h12.78v36h9.58v11.36H82.84Z" data-color="1"/>
        <path fill="#77787b" d="M106.14 52.32V4.97h12.78v36h9.58v11.36h-22.37Z" data-color="1"/>
        <path fill="#72c6a6" d="M144.27 4.97c3.48 0 7.1.36 10.15 2.13 4.05 2.34 6.25 6.67 6.25 11.29 0 5.75-3.05 9.16-8.8 9.66 6.32.78 9.73 4.26 9.73 10.72 0 8.38-6.11 13.56-14.27 13.56h-17.89V4.97h14.84Zm-2.06 18.38c.28.07.5.07.78.07 2.63 0 5.04-1.21 5.04-4.12s-1.92-4.12-4.54-4.12c-.43 0-.85 0-1.28.07v8.09Zm0 18.68c.35.07.71.07 1.06.07 2.91 0 5.25-1.49 5.25-4.62s-2.41-4.54-5.33-4.54c-.35 0-.64.07-.99.07v9.02Z" data-color="2"/>
        <path fill="#72c6a6" d="M163.44 52.32V4.97h23.71v11.15h-10.93v6.89h9.8v10.72h-9.8v7.24h10.93v11.36h-23.71Z" data-color="2"/>
        <path fill="#72c6a6" d="M189 52.32V4.97h12.78v47.36H189Z" data-color="2"/>
        <path fill="#72c6a6" d="M225.84 52.32c-3.34-9.02-7.03-17.96-9.66-27.26.36 5.04.78 10.15.78 15.19v12.07h-12.21V4.97h12.21l6.39 16.61c1.49 3.9 2.7 7.95 3.91 11.93-.71-5.82-1.42-11.57-1.42-17.46V4.97h12.21v47.36h-12.21Z" data-color="2"/>
        <path fill="#72c6a6" d="M275.4 26.9c0 5.89-.36 12.78-3.12 18.11-2.84 5.4-8.17 8.16-14.13 8.16-13.7 0-18.25-12.57-18.25-24.28s4.47-24.78 18.25-24.78c7.95 0 13.21 4.69 16.26 11.71l-12.42 4.54c-.21-2.06-1.28-4.83-3.76-4.83-5.25 0-5.25 10.86-5.25 14.48 0 3.34-.07 11.71 4.83 11.71 3.55 0 4.47-3.98 4.47-6.82h-4.69v-9.94h17.82v1.92Z" data-color="2"/>
        <path fill="#77787b" d="M288.25 4.97c14.48 0 21.65 10.01 21.65 23.71 0 5.04-.78 10.15-3.27 14.55-3.91 7.03-9.8 9.09-17.47 9.09h-11.93V4.97h11Zm1.78 35.92c5.96-.21 6.82-7.24 6.82-11.86s-.92-12.21-6.82-12.21z" data-color="1"/>
        <path fill="#77787b" d="M329.5 53.17c-5.04 0-9.73-2.48-12.92-6.32-4.12-4.97-5.33-12.42-5.33-18.67 0-11.15 5.18-24.07 18.18-24.07s17.82 13.06 17.82 24.07-4.47 24.99-17.75 24.99m-.14-37.13c-4.4 0-4.83 9.51-4.83 12.57s.28 12.57 4.69 12.57 4.76-9.44 4.76-12.5-.21-12.64-4.62-12.64" data-color="1"/>
        <path fill="#77787b" d="M370.18 52.32c-3.34-9.02-7.03-17.96-9.66-27.26.36 5.04.78 10.15.78 15.19v12.07h-12.21V4.97h12.21l6.39 16.61c1.49 3.9 2.7 7.95 3.91 11.93-.71-5.82-1.42-11.57-1.42-17.46V4.97h12.21v47.36h-12.21Z" data-color="1"/>
        <path fill="#77787b" d="M385.45 52.32V4.97h23.71v11.15h-10.93v6.89h9.8v10.72h-9.8v7.24h10.93v11.36h-23.71Z" data-color="1"/>
        <path fill="#72c6a6" d="M453.32 52.32h-12.28c-1.78-9.87-3.69-19.67-4.83-29.61-.5 4.12-.78 8.31-1.35 12.42l-2.41 17.18h-12.5L409.44 4.95h12.64c.92 5.68 1.78 11.43 2.63 17.11l.64 4.05c.36 2.84.57 5.61.92 8.45.28-2.63.43-5.25.78-7.88.99-7.24 2.34-14.48 3.62-21.72h11l2.13 11.43c1.14 6.18 1.99 12.5 2.7 18.74.43-5.18.85-10.37 1.63-15.48l2.27-14.7h12.5l-9.58 47.36Z" data-color="2"/>
        <path fill="#72c6a6" d="M462.62 52.32V4.97h23.71v11.15H475.4v6.89h9.8v10.72h-9.8v7.24h10.93v11.36h-23.71Z" data-color="2"/>
        <path fill="#72c6a6" d="M488.18 52.32V4.97h12.78v36h9.58v11.36h-22.37Z" data-color="2"/>
        <path fill="#72c6a6" d="M511.47 52.32V4.97h12.78v36h9.58v11.36h-22.37Z" data-color="2"/>
    </g>
</svg>
