<?xml version="1.0" encoding="UTF-8"?>
<svg data-bbox="1288.3 732.9 287.2 34.8" viewBox="0 0 1920 1080" xmlns="http://www.w3.org/2000/svg" data-type="color">
    <g>
        <path d="M1288.4 733.7h9.2c10.1 0 13 8.1 13 16.5s-4.1 16.6-13.1 16.6h-9.2v-33.2Zm1.8 31.4h7.6c5.3 0 11.2-3.4 11.2-14.9s-7.4-14.8-11.6-14.8h-7.2z" fill="#ffffff" data-color="1"/>
        <path d="M1314.8 733.7h11.8c4.9 0 8.9 2.1 8.9 8.6s-2.3 7.8-6 8.5c4.2.6 5.2 3.8 5.5 7.2s-.2 7.2.9 8.9h-1.9c-1.1-2.3-.4-6.1-.8-9.3s-1.7-5.8-6.6-5.8h-10v15.1h-1.7v-33.2Zm11.7 16.3c4.1 0 7.2-2.3 7.2-7.6s-3.4-6.9-7.2-6.9h-10v14.6h10Z" fill="#ffffff" data-color="1"/>
        <path d="m1357.5 733.7 8.1 33.2h-9.2l-.9-5.8h-6.9l-.9 5.8h-9.1l7.9-33.2h10.9Zm-5.5 6.8-2.4 14.1h4.8z" fill="#ffffff" data-color="1"/>
        <path d="M1379.6 733.7c2.5 0 4.5.5 5.9 1.4s2.4 2.1 3.1 3.7c.7 1.5 1.1 3.3 1.3 5.3s.2 4.1.2 6.3 0 4.3-.2 6.3-.6 3.8-1.3 5.3-1.7 2.8-3.1 3.7-3.3 1.4-5.9 1.4h-12.5v-33.2h12.5Zm-2.2 26.9c.8 0 1.5-.1 2-.3s.9-.7 1.1-1.5c.3-.7.4-1.8.5-3.2 0-1.4.1-3.2.1-5.4s0-4-.1-5.4c0-1.4-.2-2.4-.5-3.2s-.6-1.2-1.1-1.5c-.5-.2-1.2-.3-2-.3h-1.7v20.7h1.7Z" fill="#ffffff" data-color="1"/>
        <path d="M1407.2 733.7c1.6 0 3 .2 4.2.7 1.2.4 2.1 1 2.8 1.8s1.3 1.7 1.6 2.8.5 2.3.5 3.5c0 2.2-.4 4-1.3 5.4s-2.3 2.2-4.3 2.5c2.1.3 3.5 1 4.3 2.3s1.2 3 1.2 5.3v5.5c0 .4 0 .8.1 1.1 0 .3.1.6.2.8s.2.4.4.5c.1.2.3.3.6.5v.5h-9.2c-.2-.4-.4-.9-.5-1.5s-.2-1.2-.2-1.8v-5.2c0-.9 0-1.7-.1-2.3 0-.6-.3-1.1-.5-1.5s-.5-.6-.9-.7-.8-.2-1.3-.2h-2.3V767h-8.6v-33.2h13.5Zm-3.1 14c1.2 0 2.2-.4 2.7-1.1.6-.7.9-1.7.9-2.9s-.3-2.4-.9-3-1.5-.9-2.8-.9h-1.7v7.8h1.7Z" fill="#ffffff" data-color="1"/>
        <path d="M1428.7 733.7v33.2h-8.6v-33.2z" fill="#ffffff" data-color="1"/>
        <path d="m1448.8 733.7 8.1 33.2h-9.2l-.9-5.8h-6.9l-.9 5.8h-9.1l7.9-33.2h10.9Zm-5.5 6.8-2.4 14.1h4.8z" fill="#ffffff" data-color="1"/>
        <path d="m1468 733.7 5.6 20.5v-20.5h8.1v33.2h-9.5l-5.8-20.5v20.5h-8.1v-33.2z" fill="#ffffff" data-color="1"/>
        <path d="M1492.8 761.7v5.2h-5.2v-5.2z" fill="#ffffff" data-color="1"/>
        <path d="M1509 767.7c-8.5 0-13.4-7.7-13.4-17.4s5-17.4 13.4-17.4 13.4 7.7 13.4 17.4-5 17.4-13.4 17.4m0-1.8c7.3 0 11.7-7.1 11.7-15.6s-4.3-15.6-11.7-15.6-11.7 7.1-11.7 15.6 4.3 15.6 11.7 15.6" fill="#ffffff" data-color="1"/>
        <path d="M1526.1 733.7h11.8c4.9 0 8.9 2.1 8.9 8.6s-2.3 7.8-6 8.5c4.2.6 5.2 3.8 5.5 7.2s-.2 7.2.9 8.9h-1.9c-1.1-2.3-.4-6.1-.8-9.3s-1.7-5.8-6.6-5.8h-10v15.1h-1.7v-33.2Zm11.8 16.3c4.1 0 7.2-2.3 7.2-7.6s-3.4-6.9-7.2-6.9h-10v14.6h10Z" fill="#ffffff" data-color="1"/>
        <path d="M1575.5 750.6v16.3h-1.5v-7.1c-1.4 4.8-5.7 7.9-10.7 7.9-8.5 0-13.3-7.7-13.3-17.2s4.8-17.6 13.3-17.6S1574 737 1575 744h-1.7c-1.3-5.7-4.9-9.3-10-9.3-7.6 0-11.6 7.5-11.6 15.8s3.9 15.4 11.6 15.4 10.9-5.4 10.7-13.5h-10.4v-1.8z" fill="#ffffff" data-color="1"/>
    </g>
</svg>
